# This file uses centimeters as units for non-parametric coordinates.

mtllib cora.mtl
g default
v -0.039070 0.116788 0.049188
v -0.026047 0.116788 0.049188
v -0.013023 0.116788 0.049188
v 0.000000 0.116788 0.049188
v 0.013023 0.116788 0.049188
v 0.026047 0.116788 0.049188
v 0.039070 0.116788 0.049188
v -0.398393 0.395328 0.101313
v -0.265595 0.395328 0.139366
v -0.132798 0.395328 0.162198
v 0.000000 0.395328 0.162198
v 0.132798 0.395328 0.162198
v 0.265595 0.395328 0.139366
v 0.398393 0.395328 0.101314
v -0.545799 0.589608 0.132547
v -0.363866 0.589608 0.182331
v -0.181933 0.589608 0.212201
v 0.000000 0.589608 0.212201
v 0.181933 0.589608 0.212201
v 0.363866 0.589608 0.182331
v 0.545799 0.589608 0.132547
v -0.613065 0.788804 0.158580
v -0.459480 0.788804 0.218141
v -0.229740 0.788804 0.253878
v 0.000000 0.788804 0.253878
v 0.229740 0.788804 0.253878
v 0.459480 0.788804 0.218141
v 0.625205 0.788804 0.158580
v -0.438232 1.046686 0.138094
v -0.292155 1.107163 0.138094
v -0.146077 1.046686 0.137895
v 0.000000 0.910736 0.134897
v 0.146077 1.046686 0.137895
v 0.292155 1.107163 0.138094
v 0.438232 1.046686 0.138094
v -0.438232 1.046686 0.092063
v -0.292155 1.107163 0.092063
v -0.146077 1.046686 0.091930
v 0.000000 0.910736 0.089931
v 0.146077 1.046686 0.091930
v 0.292155 1.107163 0.092063
v 0.438232 1.046686 0.092063
v -0.438232 1.046686 0.046031
v -0.292155 1.107163 0.046031
v -0.146077 1.046686 0.045965
v 0.000000 0.910736 0.044966
v 0.146077 1.046686 0.045965
v 0.292155 1.107163 0.046031
v 0.438232 1.046686 0.046031
v -0.438232 1.046686 -0.000000
v -0.292155 1.107163 -0.000000
v -0.146077 1.046686 -0.000000
v 0.000000 0.910736 -0.000000
v 0.146077 1.046686 -0.000000
v 0.292155 1.107163 -0.000000
v 0.438232 1.046686 -0.000000
v -0.438232 1.046686 -0.046031
v -0.292155 1.107163 -0.046031
v -0.146077 1.046686 -0.045965
v 0.000000 0.910736 -0.044966
v 0.146077 1.046686 -0.045965
v 0.292155 1.107163 -0.046031
v 0.438232 1.046686 -0.046031
v -0.438232 1.046686 -0.092063
v -0.292155 1.107163 -0.092063
v -0.146077 1.046686 -0.091930
v 0.000000 0.910736 -0.089931
v 0.146077 1.046686 -0.091930
v 0.292155 1.107163 -0.092063
v 0.438232 1.046686 -0.092063
v -0.438232 1.046686 -0.138094
v -0.292155 1.107163 -0.138094
v -0.146077 1.046686 -0.137895
v 0.000000 0.910736 -0.134897
v 0.146077 1.046686 -0.137895
v 0.292155 1.107163 -0.138094
v 0.438232 1.046686 -0.138094
v -0.613065 0.788804 -0.158580
v -0.459480 0.788804 -0.218141
v -0.229740 0.788804 -0.253878
v 0.000000 0.788804 -0.253878
v 0.229740 0.788804 -0.253878
v 0.459480 0.788804 -0.218141
v 0.625205 0.788804 -0.158580
v -0.545799 0.589608 -0.132547
v -0.363866 0.589608 -0.182331
v -0.181933 0.589608 -0.212201
v 0.000000 0.589608 -0.212201
v 0.181933 0.589608 -0.212201
v 0.363866 0.589608 -0.182331
v 0.545799 0.589608 -0.132547
v -0.398393 0.395328 -0.101313
v -0.265595 0.395328 -0.139366
v -0.132798 0.395328 -0.162198
v 0.000000 0.395328 -0.162198
v 0.132798 0.395328 -0.162198
v 0.265595 0.395328 -0.139366
v 0.398393 0.395328 -0.101314
v -0.039070 0.116788 -0.049188
v -0.026047 0.116788 -0.049188
v -0.013023 0.116788 -0.049188
v 0.000000 0.116788 -0.049188
v 0.013023 0.116788 -0.049188
v 0.026047 0.116788 -0.049188
v 0.039070 0.116788 -0.049188
v -0.039070 0.116788 -0.032792
v -0.026047 0.116788 -0.032792
v -0.013023 0.116788 -0.032792
v 0.000000 0.116788 -0.032792
v 0.013023 0.116788 -0.032792
v 0.026047 0.116788 -0.032792
v 0.039070 0.116788 -0.032792
v -0.039070 0.116788 -0.016396
v -0.026047 0.116788 -0.016396
v -0.013023 0.116788 -0.016396
v 0.000000 0.116788 -0.016396
v 0.013023 0.116788 -0.016396
v 0.026047 0.116788 -0.016396
v 0.039070 0.116788 -0.016396
v -0.039070 0.116788 0.000000
v -0.026047 0.116788 0.000000
v -0.013023 0.116788 0.000000
v 0.000000 0.116788 0.000000
v 0.013023 0.116788 0.000000
v 0.026047 0.116788 0.000000
v 0.039070 0.116788 0.000000
v -0.039070 0.116788 0.016396
v -0.026047 0.116788 0.016396
v -0.013023 0.116788 0.016396
v 0.000000 0.116788 0.016396
v 0.013023 0.116788 0.016396
v 0.026047 0.116788 0.016396
v 0.039070 0.116788 0.016396
v -0.039070 0.116788 0.032792
v -0.026047 0.116788 0.032792
v -0.013023 0.116788 0.032792
v 0.000000 0.116788 0.032792
v 0.013023 0.116788 0.032792
v 0.026047 0.116788 0.032792
v 0.039070 0.116788 0.032792
v 0.398393 0.395328 -0.067542
v 0.398393 0.395328 -0.033771
v 0.398393 0.395328 0.000000
v 0.398393 0.395328 0.033771
v 0.398393 0.395328 0.067542
v 0.545799 0.589608 -0.088365
v 0.545799 0.589608 -0.044182
v 0.545799 0.589608 0.000000
v 0.545799 0.589608 0.044182
v 0.545799 0.589608 0.088365
v 0.625205 0.788804 -0.105720
v 0.625205 0.788804 -0.052860
v 0.625205 0.788804 0.000000
v 0.625205 0.788804 0.052860
v 0.625205 0.788804 0.105720
v -0.398393 0.395328 -0.067542
v -0.398393 0.395328 -0.033771
v -0.398393 0.395328 0.000000
v -0.398393 0.395328 0.033771
v -0.398393 0.395328 0.067542
v -0.545799 0.589608 -0.088365
v -0.545799 0.589608 -0.044182
v -0.545799 0.589608 0.000000
v -0.545799 0.589608 0.044182
v -0.545799 0.589608 0.088365
v -0.613065 0.788804 -0.105720
v -0.613065 0.788804 -0.052860
v -0.613065 0.788804 0.000000
v -0.613065 0.788804 0.052860
v -0.613065 0.788804 0.105720
vt 0.375000 0.000000
vt 0.416667 0.000000
vt 0.458333 0.000000
vt 0.500000 0.000000
vt 0.541667 0.000000
vt 0.583333 0.000000
vt 0.625000 0.000000
vt 0.375000 0.062500
vt 0.416667 0.062500
vt 0.458333 0.062500
vt 0.500000 0.062500
vt 0.541667 0.062500
vt 0.583333 0.062500
vt 0.625000 0.062500
vt 0.375000 0.125000
vt 0.416667 0.125000
vt 0.458333 0.125000
vt 0.500000 0.125000
vt 0.541667 0.125000
vt 0.583333 0.125000
vt 0.625000 0.125000
vt 0.375000 0.187500
vt 0.416667 0.187500
vt 0.458333 0.187500
vt 0.500000 0.187500
vt 0.541667 0.187500
vt 0.583333 0.187500
vt 0.625000 0.187500
vt 0.375000 0.250000
vt 0.416667 0.250000
vt 0.458333 0.250000
vt 0.500000 0.250000
vt 0.541667 0.250000
vt 0.583333 0.250000
vt 0.625000 0.250000
vt 0.375000 0.291667
vt 0.416667 0.291667
vt 0.458333 0.291667
vt 0.500000 0.291667
vt 0.541667 0.291667
vt 0.583333 0.291667
vt 0.625000 0.291667
vt 0.375000 0.333333
vt 0.416667 0.333333
vt 0.458333 0.333333
vt 0.500000 0.333333
vt 0.541667 0.333333
vt 0.583333 0.333333
vt 0.625000 0.333333
vt 0.375000 0.375000
vt 0.416667 0.375000
vt 0.458333 0.375000
vt 0.500000 0.375000
vt 0.541667 0.375000
vt 0.583333 0.375000
vt 0.625000 0.375000
vt 0.375000 0.416667
vt 0.416667 0.416667
vt 0.458333 0.416667
vt 0.500000 0.416667
vt 0.541667 0.416667
vt 0.583333 0.416667
vt 0.625000 0.416667
vt 0.375000 0.458333
vt 0.416667 0.458333
vt 0.458333 0.458333
vt 0.500000 0.458333
vt 0.541667 0.458333
vt 0.583333 0.458333
vt 0.625000 0.458333
vt 0.375000 0.500000
vt 0.416667 0.500000
vt 0.458333 0.500000
vt 0.500000 0.500000
vt 0.541667 0.500000
vt 0.583333 0.500000
vt 0.625000 0.500000
vt 0.375000 0.562500
vt 0.416667 0.562500
vt 0.458333 0.562500
vt 0.500000 0.562500
vt 0.541667 0.562500
vt 0.583333 0.562500
vt 0.625000 0.562500
vt 0.375000 0.625000
vt 0.416667 0.625000
vt 0.458333 0.625000
vt 0.500000 0.625000
vt 0.541667 0.625000
vt 0.583333 0.625000
vt 0.625000 0.625000
vt 0.375000 0.687500
vt 0.416667 0.687500
vt 0.458333 0.687500
vt 0.500000 0.687500
vt 0.541667 0.687500
vt 0.583333 0.687500
vt 0.625000 0.687500
vt 0.375000 0.750000
vt 0.416667 0.750000
vt 0.458333 0.750000
vt 0.500000 0.750000
vt 0.541667 0.750000
vt 0.583333 0.750000
vt 0.625000 0.750000
vt 0.375000 0.791667
vt 0.416667 0.791667
vt 0.458333 0.791667
vt 0.500000 0.791667
vt 0.541667 0.791667
vt 0.583333 0.791667
vt 0.625000 0.791667
vt 0.375000 0.833333
vt 0.416667 0.833333
vt 0.458333 0.833333
vt 0.500000 0.833333
vt 0.541667 0.833333
vt 0.583333 0.833333
vt 0.625000 0.833333
vt 0.375000 0.875000
vt 0.416667 0.875000
vt 0.458333 0.875000
vt 0.500000 0.875000
vt 0.541667 0.875000
vt 0.583333 0.875000
vt 0.625000 0.875000
vt 0.375000 0.916667
vt 0.416667 0.916667
vt 0.458333 0.916667
vt 0.500000 0.916667
vt 0.541667 0.916667
vt 0.583333 0.916667
vt 0.625000 0.916667
vt 0.375000 0.958333
vt 0.416667 0.958333
vt 0.458333 0.958333
vt 0.500000 0.958333
vt 0.541667 0.958333
vt 0.583333 0.958333
vt 0.625000 0.958333
vt 0.375000 1.000000
vt 0.416667 1.000000
vt 0.458333 1.000000
vt 0.500000 1.000000
vt 0.541667 1.000000
vt 0.583333 1.000000
vt 0.625000 1.000000
vt 0.875000 0.000000
vt 0.833333 0.000000
vt 0.791667 0.000000
vt 0.750000 0.000000
vt 0.708333 0.000000
vt 0.666667 0.000000
vt 0.875000 0.062500
vt 0.833333 0.062500
vt 0.791667 0.062500
vt 0.750000 0.062500
vt 0.708333 0.062500
vt 0.666667 0.062500
vt 0.875000 0.125000
vt 0.833333 0.125000
vt 0.791667 0.125000
vt 0.750000 0.125000
vt 0.708333 0.125000
vt 0.666667 0.125000
vt 0.875000 0.187500
vt 0.833333 0.187500
vt 0.791667 0.187500
vt 0.750000 0.187500
vt 0.708333 0.187500
vt 0.666667 0.187500
vt 0.875000 0.250000
vt 0.833333 0.250000
vt 0.791667 0.250000
vt 0.750000 0.250000
vt 0.708333 0.250000
vt 0.666667 0.250000
vt 0.125000 0.000000
vt 0.166667 0.000000
vt 0.208333 0.000000
vt 0.250000 0.000000
vt 0.291667 0.000000
vt 0.333333 0.000000
vt 0.125000 0.062500
vt 0.166667 0.062500
vt 0.208333 0.062500
vt 0.250000 0.062500
vt 0.291667 0.062500
vt 0.333333 0.062500
vt 0.125000 0.125000
vt 0.166667 0.125000
vt 0.208333 0.125000
vt 0.250000 0.125000
vt 0.291667 0.125000
vt 0.333333 0.125000
vt 0.125000 0.187500
vt 0.166667 0.187500
vt 0.208333 0.187500
vt 0.250000 0.187500
vt 0.291667 0.187500
vt 0.333333 0.187500
vt 0.125000 0.250000
vt 0.166667 0.250000
vt 0.208333 0.250000
vt 0.250000 0.250000
vt 0.291667 0.250000
vt 0.333333 0.250000
vn -0.224147 -0.460380 0.858958
vn -0.165010 -0.430775 0.887245
vn -0.197471 -0.364568 0.909998
vn -0.247946 -0.359501 0.899601
vn -0.054508 -0.393266 0.917808
vn -0.076896 -0.322295 0.943511
vn 0.000000 -0.375958 0.926637
vn 0.000000 -0.301824 0.953364
vn 0.054508 -0.393266 0.917808
vn 0.076896 -0.322295 0.943511
vn 0.165010 -0.430775 0.887245
vn 0.197471 -0.364568 0.909998
vn 0.224147 -0.460380 0.858958
vn 0.247946 -0.359501 0.899601
vn -0.210333 -0.280000 0.936675
vn -0.283958 -0.287678 0.914663
vn -0.077533 -0.242803 0.966972
vn 0.000000 -0.223957 0.974599
vn 0.077533 -0.242803 0.966972
vn 0.208952 -0.280830 0.936735
vn 0.277771 -0.290126 0.915789
vn -0.196297 0.067724 0.978203
vn -0.285003 0.006354 0.958506
vn -0.016966 0.125484 0.991951
vn -0.000000 0.166564 0.986031
vn 0.016966 0.125484 0.991951
vn 0.192590 0.066141 0.979048
vn 0.275131 0.005412 0.961392
vn -0.082724 0.330094 0.940316
vn -0.244599 0.305769 0.920150
vn 0.040587 0.391465 0.919298
vn -0.000000 0.496087 0.868273
vn -0.040587 0.391465 0.919298
vn 0.081988 0.329805 0.940482
vn 0.235525 0.305756 0.922519
vn -0.382522 0.923946 0.000000
vn -0.000316 1.000000 0.000000
vn -0.000149 1.000000 0.000000
vn -0.382522 0.923946 0.000000
vn 0.556323 0.830966 0.000000
vn 0.557094 0.830449 0.000000
vn 0.000000 1.000000 0.000000
vn 0.000000 1.000000 0.000000
vn -0.556323 0.830966 0.000000
vn -0.557094 0.830450 0.000000
vn 0.000316 1.000000 0.000000
vn 0.000149 1.000000 0.000000
vn 0.382522 0.923946 0.000000
vn 0.382522 0.923946 0.000000
vn -0.000149 1.000000 0.000000
vn -0.382522 0.923946 0.000000
vn 0.557094 0.830449 0.000000
vn 0.000000 1.000000 0.000000
vn -0.557094 0.830450 0.000000
vn 0.000149 1.000000 0.000000
vn 0.382522 0.923946 0.000000
vn -0.000149 1.000000 0.000000
vn -0.382522 0.923946 0.000000
vn 0.557094 0.830449 0.000000
vn -0.000000 1.000000 0.000000
vn -0.557094 0.830449 0.000000
vn 0.000149 1.000000 0.000000
vn 0.382522 0.923946 0.000000
vn -0.000149 1.000000 0.000000
vn -0.382522 0.923946 0.000000
vn 0.557094 0.830449 0.000000
vn -0.000000 1.000000 0.000000
vn -0.557094 0.830450 0.000000
vn 0.000149 1.000000 0.000000
vn 0.382522 0.923946 0.000000
vn -0.000149 1.000000 0.000000
vn -0.382522 0.923946 0.000000
vn 0.557094 0.830449 0.000000
vn -0.000000 1.000000 0.000000
vn -0.557094 0.830450 0.000000
vn 0.000149 1.000000 0.000000
vn 0.382522 0.923946 0.000000
vn -0.000316 1.000000 0.000000
vn -0.382522 0.923946 0.000000
vn 0.556323 0.830966 0.000000
vn -0.000000 1.000000 0.000000
vn -0.556323 0.830966 0.000000
vn 0.000316 1.000000 0.000000
vn 0.382522 0.923946 0.000000
vn -0.244599 0.305769 -0.920150
vn -0.082724 0.330094 -0.940316
vn -0.196297 0.067724 -0.978203
vn -0.285003 0.006354 -0.958506
vn 0.040587 0.391465 -0.919298
vn -0.016966 0.125484 -0.991951
vn -0.000000 0.496087 -0.868273
vn -0.000000 0.166564 -0.986031
vn -0.040587 0.391465 -0.919298
vn 0.016966 0.125484 -0.991951
vn 0.081988 0.329805 -0.940482
vn 0.192590 0.066141 -0.979048
vn 0.235525 0.305756 -0.922519
vn 0.275131 0.005412 -0.961392
vn -0.210333 -0.280000 -0.936675
vn -0.283958 -0.287678 -0.914663
vn -0.077533 -0.242803 -0.966972
vn 0.000000 -0.223957 -0.974599
vn 0.077533 -0.242803 -0.966972
vn 0.208952 -0.280830 -0.936735
vn 0.277771 -0.290126 -0.915789
vn -0.197471 -0.364568 -0.909998
vn -0.247946 -0.359501 -0.899601
vn -0.076896 -0.322295 -0.943511
vn 0.000000 -0.301824 -0.953364
vn 0.076896 -0.322295 -0.943511
vn 0.197471 -0.364568 -0.909998
vn 0.247946 -0.359501 -0.899601
vn -0.165010 -0.430775 -0.887245
vn -0.224147 -0.460380 -0.858958
vn -0.054508 -0.393266 -0.917808
vn 0.000000 -0.375958 -0.926637
vn 0.054508 -0.393266 -0.917808
vn 0.165010 -0.430775 -0.887246
vn 0.224147 -0.460380 -0.858958
vn 0.000000 -1.000000 0.000000
vn 0.000000 -1.000000 0.000000
vn 0.000000 -1.000000 0.000000
vn 0.000000 -1.000000 0.000000
vn 0.000000 -1.000000 0.000000
vn 0.000000 -1.000000 0.000000
vn 0.000000 -1.000000 0.000000
vn 0.000000 -1.000000 0.000000
vn 0.000000 -1.000000 0.000000
vn 0.000000 -1.000000 0.000000
vn 0.000000 -1.000000 0.000000
vn 0.000000 -1.000000 0.000000
vn 0.000000 -1.000000 0.000000
vn 0.000000 -1.000000 0.000000
vn 0.000000 -1.000000 0.000000
vn 0.000000 -1.000000 0.000000
vn 0.000000 -1.000000 0.000000
vn 0.000000 -1.000000 0.000000
vn 0.000000 -1.000000 0.000000
vn 0.000000 -1.000000 0.000000
vn 0.000000 -1.000000 0.000000
vn 0.000000 -1.000000 0.000000
vn 0.000000 -1.000000 0.000000
vn 0.000000 -1.000000 0.000000
vn 0.000000 -1.000000 0.000000
vn 0.000000 -1.000000 0.000000
vn 0.000000 -1.000000 0.000000
vn 0.000000 -1.000000 0.000000
vn 0.000000 -1.000000 0.000000
vn 0.000000 -1.000000 0.000000
vn 0.000000 -1.000000 0.000000
vn 0.000000 -1.000000 0.000000
vn 0.000000 -1.000000 0.000000
vn 0.000000 -1.000000 0.000000
vn 0.000000 -1.000000 0.000000
vn 0.000000 -1.000000 0.000000
vn 0.000000 -1.000000 0.000000
vn 0.000000 -1.000000 0.000000
vn 0.000000 -1.000000 0.000000
vn 0.000000 -1.000000 0.000000
vn 0.000000 -1.000000 0.000000
vn 0.000000 -1.000000 0.000000
vn 0.000000 -1.000000 0.000000
vn 0.000000 -1.000000 0.000000
vn 0.000000 -1.000000 0.000000
vn 0.000000 -1.000000 0.000000
vn 0.000000 -1.000000 0.000000
vn 0.000000 -1.000000 0.000000
vn 0.000000 -1.000000 0.000000
vn 0.612661 -0.790346 0.000000
vn 0.612661 -0.790346 0.000001
vn 0.709427 -0.704779 0.000001
vn 0.702283 -0.711898 0.000000
vn 0.612660 -0.790346 0.000000
vn 0.702283 -0.711898 0.000000
vn 0.612660 -0.790346 0.000000
vn 0.702283 -0.711898 0.000000
vn 0.612660 -0.790346 0.000000
vn 0.702283 -0.711898 0.000000
vn 0.612660 -0.790346 -0.000000
vn 0.702283 -0.711898 -0.000000
vn 0.612661 -0.790346 -0.000001
vn 0.709427 -0.704779 -0.000001
vn 0.878833 -0.477129 0.000001
vn 0.873687 -0.486488 0.000000
vn 0.873687 -0.486488 0.000000
vn 0.873687 -0.486488 0.000000
vn 0.873687 -0.486488 0.000000
vn 0.873687 -0.486488 -0.000000
vn 0.878833 -0.477129 -0.000001
vn 0.969899 0.243507 0.000000
vn 0.972267 0.233872 0.000000
vn 0.972267 0.233872 0.000000
vn 0.972267 0.233872 0.000000
vn 0.972267 0.233872 0.000000
vn 0.972267 0.233872 -0.000000
vn 0.969899 0.243507 -0.000000
vn 0.809597 0.586986 0.000000
vn 0.809597 0.586986 0.000000
vn 0.809597 0.586986 0.000000
vn 0.809597 0.586986 0.000000
vn 0.809597 0.586986 0.000000
vn 0.809597 0.586986 0.000000
vn 0.809597 0.586986 0.000000
vn -0.612661 -0.790346 0.000000
vn -0.612660 -0.790346 0.000000
vn -0.702283 -0.711898 0.000000
vn -0.709427 -0.704779 0.000000
vn -0.612660 -0.790346 0.000000
vn -0.702283 -0.711898 0.000000
vn -0.612660 -0.790346 0.000000
vn -0.702283 -0.711898 0.000000
vn -0.612660 -0.790346 0.000000
vn -0.702283 -0.711898 0.000000
vn -0.612660 -0.790346 0.000000
vn -0.702283 -0.711898 0.000000
vn -0.612660 -0.790346 0.000000
vn -0.709427 -0.704779 0.000000
vn -0.886254 -0.463199 0.000000
vn -0.892189 -0.451662 0.000000
vn -0.886254 -0.463199 0.000000
vn -0.886254 -0.463199 0.000000
vn -0.886254 -0.463199 0.000000
vn -0.886254 -0.463199 0.000000
vn -0.892189 -0.451662 0.000000
vn -0.972378 0.233412 0.000000
vn -0.970206 0.242283 0.000000
vn -0.972378 0.233412 0.000000
vn -0.972378 0.233412 0.000000
vn -0.972378 0.233412 0.000000
vn -0.972378 0.233412 0.000000
vn -0.970206 0.242284 0.000000
vn -0.827713 0.561152 0.000000
vn -0.827713 0.561152 0.000000
vn -0.827713 0.561152 0.000000
vn -0.827713 0.561152 0.000000
vn -0.827713 0.561152 0.000000
vn -0.827713 0.561152 0.000000
vn -0.827713 0.561152 0.000000
s 1
g pCube1
usemtl initialShadingGroup
f 1/1/1 2/2/2 9/9/3 8/8/4
f 2/2/2 3/3/5 10/10/6 9/9/3
f 3/3/5 4/4/7 11/11/8 10/10/6
f 4/4/7 5/5/9 12/12/10 11/11/8
f 5/5/9 6/6/11 13/13/12 12/12/10
f 6/6/11 7/7/13 14/14/14 13/13/12
f 8/8/4 9/9/3 16/16/15 15/15/16
f 9/9/3 10/10/6 17/17/17 16/16/15
f 10/10/6 11/11/8 18/18/18 17/17/17
f 11/11/8 12/12/10 19/19/19 18/18/18
f 12/12/10 13/13/12 20/20/20 19/19/19
f 13/13/12 14/14/14 21/21/21 20/20/20
f 15/15/16 16/16/15 23/23/22 22/22/23
f 16/16/15 17/17/17 24/24/24 23/23/22
f 17/17/17 18/18/18 25/25/25 24/24/24
f 18/18/18 19/19/19 26/26/26 25/25/25
f 19/19/19 20/20/20 27/27/27 26/26/26
f 20/20/20 21/21/21 28/28/28 27/27/27
f 22/22/23 23/23/22 30/30/29 29/29/30
f 23/23/22 24/24/24 31/31/31 30/30/29
f 24/24/24 25/25/25 32/32/32 31/31/31
f 25/25/25 26/26/26 33/33/33 32/32/32
f 26/26/26 27/27/27 34/34/34 33/33/33
f 27/27/27 28/28/28 35/35/35 34/34/34
s 2
f 29/29/36 30/30/37 37/37/38 36/36/39
f 30/30/37 31/31/40 38/38/41 37/37/38
f 31/31/40 32/32/42 39/39/43 38/38/41
f 32/32/42 33/33/44 40/40/45 39/39/43
f 33/33/44 34/34/46 41/41/47 40/40/45
f 34/34/46 35/35/48 42/42/49 41/41/47
f 36/36/39 37/37/38 44/44/50 43/43/51
f 37/37/38 38/38/41 45/45/52 44/44/50
f 38/38/41 39/39/43 46/46/53 45/45/52
f 39/39/43 40/40/45 47/47/54 46/46/53
f 40/40/45 41/41/47 48/48/55 47/47/54
f 41/41/47 42/42/49 49/49/56 48/48/55
f 43/43/51 44/44/50 51/51/57 50/50/58
f 44/44/50 45/45/52 52/52/59 51/51/57
f 45/45/52 46/46/53 53/53/60 52/52/59
f 46/46/53 47/47/54 54/54/61 53/53/60
f 47/47/54 48/48/55 55/55/62 54/54/61
f 48/48/55 49/49/56 56/56/63 55/55/62
f 50/50/58 51/51/57 58/58/64 57/57/65
f 51/51/57 52/52/59 59/59/66 58/58/64
f 52/52/59 53/53/60 60/60/67 59/59/66
f 53/53/60 54/54/61 61/61/68 60/60/67
f 54/54/61 55/55/62 62/62/69 61/61/68
f 55/55/62 56/56/63 63/63/70 62/62/69
f 57/57/65 58/58/64 65/65/71 64/64/72
f 58/58/64 59/59/66 66/66/73 65/65/71
f 59/59/66 60/60/67 67/67/74 66/66/73
f 60/60/67 61/61/68 68/68/75 67/67/74
f 61/61/68 62/62/69 69/69/76 68/68/75
f 62/62/69 63/63/70 70/70/77 69/69/76
f 64/64/72 65/65/71 72/72/78 71/71/79
f 65/65/71 66/66/73 73/73/80 72/72/78
f 66/66/73 67/67/74 74/74/81 73/73/80
f 67/67/74 68/68/75 75/75/82 74/74/81
f 68/68/75 69/69/76 76/76/83 75/75/82
f 69/69/76 70/70/77 77/77/84 76/76/83
s 3
f 71/71/85 72/72/86 79/79/87 78/78/88
f 72/72/86 73/73/89 80/80/90 79/79/87
f 73/73/89 74/74/91 81/81/92 80/80/90
f 74/74/91 75/75/93 82/82/94 81/81/92
f 75/75/93 76/76/95 83/83/96 82/82/94
f 76/76/95 77/77/97 84/84/98 83/83/96
f 78/78/88 79/79/87 86/86/99 85/85/100
f 79/79/87 80/80/90 87/87/101 86/86/99
f 80/80/90 81/81/92 88/88/102 87/87/101
f 81/81/92 82/82/94 89/89/103 88/88/102
f 82/82/94 83/83/96 90/90/104 89/89/103
f 83/83/96 84/84/98 91/91/105 90/90/104
f 85/85/100 86/86/99 93/93/106 92/92/107
f 86/86/99 87/87/101 94/94/108 93/93/106
f 87/87/101 88/88/102 95/95/109 94/94/108
f 88/88/102 89/89/103 96/96/110 95/95/109
f 89/89/103 90/90/104 97/97/111 96/96/110
f 90/90/104 91/91/105 98/98/112 97/97/111
f 92/92/107 93/93/106 100/100/113 99/99/114
f 93/93/106 94/94/108 101/101/115 100/100/113
f 94/94/108 95/95/109 102/102/116 101/101/115
f 95/95/109 96/96/110 103/103/117 102/102/116
f 96/96/110 97/97/111 104/104/118 103/103/117
f 97/97/111 98/98/112 105/105/119 104/104/118
s 4
f 99/99/120 100/100/121 107/107/122 106/106/123
f 100/100/121 101/101/124 108/108/125 107/107/122
f 101/101/124 102/102/126 109/109/127 108/108/125
f 102/102/126 103/103/128 110/110/129 109/109/127
f 103/103/128 104/104/130 111/111/131 110/110/129
f 104/104/130 105/105/132 112/112/133 111/111/131
f 106/106/123 107/107/122 114/114/134 113/113/135
f 107/107/122 108/108/125 115/115/136 114/114/134
f 108/108/125 109/109/127 116/116/137 115/115/136
f 109/109/127 110/110/129 117/117/138 116/116/137
f 110/110/129 111/111/131 118/118/139 117/117/138
f 111/111/131 112/112/133 119/119/140 118/118/139
f 113/113/135 114/114/134 121/121/141 120/120/142
f 114/114/134 115/115/136 122/122/143 121/121/141
f 115/115/136 116/116/137 123/123/144 122/122/143
f 116/116/137 117/117/138 124/124/145 123/123/144
f 117/117/138 118/118/139 125/125/146 124/124/145
f 118/118/139 119/119/140 126/126/147 125/125/146
f 120/120/142 121/121/141 128/128/148 127/127/149
f 121/121/141 122/122/143 129/129/150 128/128/148
f 122/122/143 123/123/144 130/130/151 129/129/150
f 123/123/144 124/124/145 131/131/152 130/130/151
f 124/124/145 125/125/146 132/132/153 131/131/152
f 125/125/146 126/126/147 133/133/154 132/132/153
f 127/127/149 128/128/148 135/135/155 134/134/156
f 128/128/148 129/129/150 136/136/157 135/135/155
f 129/129/150 130/130/151 137/137/158 136/136/157
f 130/130/151 131/131/152 138/138/159 137/137/158
f 131/131/152 132/132/153 139/139/160 138/138/159
f 132/132/153 133/133/154 140/140/161 139/139/160
f 134/134/156 135/135/155 2/142/162 1/141/163
f 135/135/155 136/136/157 3/143/164 2/142/162
f 136/136/157 137/137/158 4/144/165 3/143/164
f 137/137/158 138/138/159 5/145/166 4/144/165
f 138/138/159 139/139/160 6/146/167 5/145/166
f 139/139/160 140/140/161 7/147/168 6/146/167
s 5
f 112/149/169 105/148/170 98/154/171 141/155/172
f 119/150/173 112/149/169 141/155/172 142/156/174
f 126/151/175 119/150/173 142/156/174 143/157/176
f 133/152/177 126/151/175 143/157/176 144/158/178
f 140/153/179 133/152/177 144/158/178 145/159/180
f 7/7/181 140/153/179 145/159/180 14/14/182
f 141/155/172 98/154/171 91/160/183 146/161/184
f 142/156/174 141/155/172 146/161/184 147/162/185
f 143/157/176 142/156/174 147/162/185 148/163/186
f 144/158/178 143/157/176 148/163/186 149/164/187
f 145/159/180 144/158/178 149/164/187 150/165/188
f 14/14/182 145/159/180 150/165/188 21/21/189
f 146/161/184 91/160/183 84/166/190 151/167/191
f 147/162/185 146/161/184 151/167/191 152/168/192
f 148/163/186 147/162/185 152/168/192 153/169/193
f 149/164/187 148/163/186 153/169/193 154/170/194
f 150/165/188 149/164/187 154/170/194 155/171/195
f 21/21/189 150/165/188 155/171/195 28/28/196
f 151/167/191 84/166/190 77/172/197 70/173/198
f 152/168/192 151/167/191 70/173/198 63/174/199
f 153/169/193 152/168/192 63/174/199 56/175/200
f 154/170/194 153/169/193 56/175/200 49/176/201
f 155/171/195 154/170/194 49/176/201 42/177/202
f 28/28/196 155/171/195 42/177/202 35/35/203
s 6
f 99/178/204 106/179/205 156/185/206 92/184/207
f 106/179/205 113/180/208 157/186/209 156/185/206
f 113/180/208 120/181/210 158/187/211 157/186/209
f 120/181/210 127/182/212 159/188/213 158/187/211
f 127/182/212 134/183/214 160/189/215 159/188/213
f 134/183/214 1/1/216 8/8/217 160/189/215
f 92/184/207 156/185/206 161/191/218 85/190/219
f 156/185/206 157/186/209 162/192/220 161/191/218
f 157/186/209 158/187/211 163/193/221 162/192/220
f 158/187/211 159/188/213 164/194/222 163/193/221
f 159/188/213 160/189/215 165/195/223 164/194/222
f 160/189/215 8/8/217 15/15/224 165/195/223
f 85/190/219 161/191/218 166/197/225 78/196/226
f 161/191/218 162/192/220 167/198/227 166/197/225
f 162/192/220 163/193/221 168/199/228 167/198/227
f 163/193/221 164/194/222 169/200/229 168/199/228
f 164/194/222 165/195/223 170/201/230 169/200/229
f 165/195/223 15/15/224 22/22/231 170/201/230
f 78/196/226 166/197/225 64/203/232 71/202/233
f 166/197/225 167/198/227 57/204/234 64/203/232
f 167/198/227 168/199/228 50/205/235 57/204/234
f 168/199/228 169/200/229 43/206/236 50/205/235
f 169/200/229 170/201/230 36/207/237 43/206/236
f 170/201/230 22/22/231 29/29/238 36/207/237
