# This file uses centimeters as units for non-parametric coordinates.

mtllib pico.mtl
g default
v 0.362043 -0.112426 -0.362043
v 0.000000 -0.112426 -0.512006
v -0.362043 -0.112426 -0.362043
v -0.512006 -0.112426 0.000000
v -0.362043 -0.112426 0.362043
v 0.000000 -0.112426 0.512006
v 0.362043 -0.112426 0.362043
v 0.512006 -0.112426 0.000000
v 0.000000 2.845002 0.000000
v 0.000000 -0.112426 0.000000
vt 0.676777 0.073223
vt 0.500000 0.000000
vt 0.323223 0.073223
vt 0.250000 0.250000
vt 0.323223 0.426777
vt 0.500000 0.500000
vt 0.676777 0.426777
vt 0.750000 0.250000
vt 0.250000 0.500000
vt 0.312500 0.500000
vt 0.375000 0.500000
vt 0.437500 0.500000
vt 0.500000 0.500000
vt 0.562500 0.500000
vt 0.625000 0.500000
vt 0.687500 0.500000
vt 0.750000 0.500000
vt 0.500000 1.000000
vt 0.500000 0.250000
vn 0.000000 -1.000000 0.000000
vn 0.000000 -1.000000 0.000000
vn 0.000000 -1.000000 0.000000
vn 0.000000 -1.000000 0.000000
vn 0.377880 0.157940 -0.912284
vn 0.377880 0.157940 -0.912284
vn 0.377880 0.157940 -0.912284
vn -0.377880 0.157940 -0.912284
vn -0.377880 0.157940 -0.912284
vn -0.377880 0.157940 -0.912284
vn -0.912284 0.157940 -0.377880
vn -0.912284 0.157940 -0.377880
vn -0.912284 0.157940 -0.377880
vn -0.912284 0.157940 0.377880
vn -0.912284 0.157940 0.377880
vn -0.912284 0.157940 0.377880
vn -0.377880 0.157940 0.912284
vn -0.377880 0.157940 0.912284
vn -0.377880 0.157940 0.912284
vn 0.377880 0.157940 0.912284
vn 0.377880 0.157940 0.912284
vn 0.377880 0.157940 0.912284
vn 0.912284 0.157940 0.377880
vn 0.912284 0.157940 0.377880
vn 0.912284 0.157940 0.377880
vn 0.912284 0.157940 -0.377880
vn 0.912284 0.157940 -0.377880
vn 0.912284 0.157940 -0.377880
vn 0.000000 -1.000000 0.000000
vn 0.000000 -1.000000 0.000000
vn 0.000000 -1.000000 0.000000
vn 0.000000 -1.000000 0.000000
vn 0.000000 -1.000000 0.000000
s 1
g pCone1
usemtl initialShadingGroup
f 10/19/1 8/8/2 7/7/3 6/6/4
s off
f 1/9/5 2/10/6 9/18/7
f 2/10/8 3/11/9 9/18/10
f 3/11/11 4/12/12 9/18/13
f 4/12/14 5/13/15 9/18/16
f 5/13/17 6/14/18 9/18/19
f 6/14/20 7/15/21 9/18/22
f 7/15/23 8/16/24 9/18/25
f 8/16/26 1/17/27 9/18/28
s 1
f 4/4/29 10/19/1 6/6/4 5/5/30
f 2/2/31 10/19/1 4/4/29 3/3/32
f 1/1/33 8/8/2 10/19/1 2/2/31
